HIERARCHY
ROOT Hips
{
	OFFSET 0.000000 0.000000 0.000000 
	CHANNELS 6 Xposition Yposition Zposition Zrotation Xrotation Yrotation
	JOINT LeftUpLeg
	{
		OFFSET 2.390000 -0.997500 0.003131 
		CHANNELS 3 Zrotation Xrotation Yrotation
		JOINT LeftUpLegRoll
		{
			OFFSET -0.008228 -5.368025 -0.050000 
			CHANNELS 3 Zrotation Xrotation Yrotation
			JOINT LeftLeg
			{
				OFFSET 0.008228 -5.304475 -0.040000 
				CHANNELS 3 Zrotation Xrotation Yrotation
				JOINT LeftLegRoll
				{
					OFFSET 0.008266 -8.023550 -0.789272 
					CHANNELS 3 Zrotation Xrotation Yrotation
					JOINT LeftFoot
					{
						OFFSET -0.008285 -2.447005 -0.176461 
						CHANNELS 3 Zrotation Xrotation Yrotation
						End Site
						{
							OFFSET -0.006362 -1.603547 3.533050 
						}
					}
				}
			}
		}
	}
	JOINT RightUpLeg
	{
		OFFSET -2.390000 -0.997500 0.003131 
		CHANNELS 3 Zrotation Xrotation Yrotation
		JOINT RightUpLegRoll
		{
			OFFSET 0.007500 -5.367500 -0.050000 
			CHANNELS 3 Zrotation Xrotation Yrotation
			JOINT RightLeg
			{
				OFFSET -0.007500 -5.305000 -0.040000 
				CHANNELS 3 Zrotation Xrotation Yrotation
				JOINT RightLegRoll
				{
					OFFSET 0.005000 -8.024050 -0.790258 
					CHANNELS 3 Zrotation Xrotation Yrotation
					JOINT RightFoot
					{
						OFFSET 0.020000 -2.446472 -0.175476 
						CHANNELS 3 Zrotation Xrotation Yrotation
						End Site
						{
							OFFSET 0.010000 -1.603528 3.533050 
						}
					}
				}
			}
		}
	}
	JOINT Spine
	{
		OFFSET 0.000211 2.856775 0.095838 
		CHANNELS 3 Zrotation Xrotation Yrotation
		JOINT Spine1
		{
			OFFSET 0.000000 3.491675 -0.016748 
			CHANNELS 3 Zrotation Xrotation Yrotation
			JOINT Spine2
			{
				OFFSET 0.000000 2.811225 -0.017190 
				CHANNELS 3 Zrotation Xrotation Yrotation
				JOINT Spine3
				{
					OFFSET 0.000000 3.297825 -0.158152 
					CHANNELS 3 Zrotation Xrotation Yrotation
					JOINT LeftShoulder
					{
						OFFSET 2.247500 -0.945430 -0.255617 
						CHANNELS 3 Zrotation Xrotation Yrotation
						JOINT LeftArm
						{
							OFFSET 2.422500 0.192500 0.242500 
							CHANNELS 3 Zrotation Xrotation Yrotation
							JOINT LeftArmRoll
							{
								OFFSET 3.011150 -0.056125 -0.149282 
								CHANNELS 3 Zrotation Xrotation Yrotation
								JOINT LeftForeArm
								{
									OFFSET 3.544950 0.021691 -0.254337 
									CHANNELS 3 Zrotation Xrotation Yrotation
									JOINT LeftForeArmRoll
									{
										OFFSET 3.242425 0.024099 -0.017220 
										CHANNELS 3 Zrotation Xrotation Yrotation
										End Site
										{
											OFFSET 3.371325 0.031393 -0.007218 
										}
									}
								}
							}
						}
					}
					JOINT RightShoulder
					{
						OFFSET -2.247500 -0.945430 -0.255617 
						CHANNELS 3 Zrotation Xrotation Yrotation
						JOINT RightArm
						{
							OFFSET -2.422500 0.192500 0.242500 
							CHANNELS 3 Zrotation Xrotation Yrotation
							JOINT RightArmRoll
							{
								OFFSET -3.062100 -0.062702 -0.132500 
								CHANNELS 3 Zrotation Xrotation Yrotation
								JOINT RightForeArm
								{
									OFFSET -3.498150 0.035499 -0.338573 
									CHANNELS 3 Zrotation Xrotation Yrotation
									JOINT RightForeArmRoll
									{
										OFFSET -3.278950 0.026904 0.120309 
										CHANNELS 3 Zrotation Xrotation Yrotation
										End Site
										{
											OFFSET -3.349925 0.018716 0.058049 
										}
									}
								}
							}
						}
					}
					JOINT Neck
					{
						OFFSET 0.000000 1.108613 -0.101302 
						CHANNELS 3 Zrotation Xrotation Yrotation
						End Site
						{
							OFFSET 0.000000 1.617325 0.410885 
						}
					}
				}
			}
		}
	}
}
MOTION
Frames: 15
Frame Time: 0.041667
-0.508170 24.034849 -25.949751 -0.301339 4.431570 -0.130087 -6.856970 2.289970 -6.145200 0.000000 -0.000000 0.000000 -0.767315 1.475280 -0.124729 0.000000 -0.000000 0.000000 7.101460 -6.899430 1.675640 -3.300910 -5.720540 3.706000 0.000000 0.000000 0.000000 6.141350 25.221901 -2.421550 -0.000000 0.000000 0.000000 -9.098920 -2.388440 -3.610050 3.105180 0.029643 -0.157760 -0.000000 0.000000 -0.000000 0.000000 0.000000 -0.000000 0.000000 -0.000000 0.000000 -15.367500 -1.062230 -3.086020 -77.057404 43.494900 28.266199 0.000000 -0.000000 0.000000 -3.132550 -23.423000 -18.735100 -0.000000 0.000000 -0.000000 18.955200 0.658807 -0.414045 66.411697 57.478401 -9.734040 -0.000000 0.000000 0.000000 -11.927600 -13.192200 14.806300 -0.000000 0.000000 0.000000 0.000000 0.000000 0.000000 
-0.354740 24.026449 -25.719000 -0.953542 5.052210 -0.703938 -6.449860 2.467500 -4.460280 0.000000 -0.000000 0.000000 -0.689598 1.289920 -0.175204 0.000000 -0.000000 0.000000 6.228890 -7.642660 1.270930 -4.514570 -12.134000 7.603950 0.000000 0.000000 0.000000 13.402300 32.936100 -6.651380 -0.000000 0.000000 0.000000 -12.630800 2.041550 -4.029410 4.740470 -0.077077 -0.335985 -0.000000 0.000000 -0.000000 0.000000 0.000000 -0.000000 0.000000 -0.000000 0.000000 -15.070800 -1.044570 -3.042120 -74.214302 45.124401 23.978399 0.000000 -0.000000 0.000000 -1.366460 -21.948200 -18.644800 -0.000000 0.000000 -0.000000 18.961300 0.659892 -0.426795 66.821899 56.406601 -10.752700 -0.000000 0.000000 0.000000 -11.503800 -14.276100 15.093400 -0.000000 0.000000 0.000000 0.000000 0.000000 0.000000 
-0.225286 24.011774 -25.414249 -1.644190 4.839090 -1.139980 -6.076170 3.724410 -3.122450 0.000000 -0.000000 0.000000 -0.500009 0.735797 -0.162120 0.000000 -0.000000 0.000000 5.616500 -8.418590 1.067490 -4.002370 -16.783199 10.615600 0.000000 0.000000 0.000000 18.799999 40.337898 -10.479600 -0.000000 0.000000 0.000000 -13.858900 2.576550 -4.071660 6.237030 -0.029337 -0.615994 -0.000000 0.000000 -0.000000 0.000000 0.000000 -0.000000 0.000000 -0.000000 0.000000 -14.792000 -1.045340 -3.101060 -72.226196 45.938599 21.419500 0.000000 -0.000000 0.000000 0.023935 -21.034000 -18.853701 -0.000000 0.000000 -0.000000 18.833700 0.662978 -0.509266 66.951401 55.381699 -10.935000 -0.000000 0.000000 0.000000 -11.085200 -14.783200 15.074800 -0.000000 0.000000 0.000000 0.000000 0.000000 0.000000 
-0.199732 24.000626 -25.083750 -2.875890 4.992490 -1.827320 -4.970440 4.775270 -1.923240 0.000000 -0.000000 0.000000 -0.315714 0.126081 -0.073119 0.000000 -0.000000 0.000000 5.138510 -9.213300 0.892451 -1.567180 -20.971901 12.046700 0.000000 0.000000 0.000000 20.887600 43.038101 -12.176400 -0.000000 0.000000 0.000000 -14.308800 1.220550 -4.344370 7.091030 0.046905 -0.684282 -0.000000 0.000000 -0.000000 0.000000 0.000000 -0.000000 0.000000 -0.000000 0.000000 -14.434600 -1.029670 -3.102010 -71.029404 45.738998 19.806601 0.000000 -0.000000 0.000000 -0.193873 -22.188499 -20.463900 -0.000000 0.000000 -0.000000 18.760401 0.690590 -0.798518 67.435997 54.532902 -11.577100 -0.000000 0.000000 0.000000 -10.779700 -15.276300 15.125000 -0.000000 0.000000 0.000000 0.000000 0.000000 0.000000 
-0.196110 23.958300 -24.723675 -3.853700 5.565300 -3.114060 -4.209030 5.713410 -0.765608 0.000000 -0.000000 0.000000 -0.021241 -0.669389 0.090547 0.000000 -0.000000 0.000000 4.989020 -9.470300 0.865593 0.809361 -25.080099 10.650000 0.000000 0.000000 0.000000 19.998400 42.131001 -11.738800 -0.000000 0.000000 0.000000 -15.945100 0.127378 -5.067900 7.222420 0.170063 -0.568436 -0.000000 0.000000 -0.000000 0.000000 0.000000 -0.000000 0.000000 -0.000000 0.000000 -13.278100 -0.983288 -3.023670 -71.053001 44.602798 18.734400 0.000000 -0.000000 0.000000 -0.065651 -23.363100 -23.064199 -0.000000 0.000000 -0.000000 18.871599 0.761023 -1.645040 68.398102 53.583500 -12.949500 -0.000000 0.000000 0.000000 -10.719300 -15.819500 15.441500 -0.000000 0.000000 0.000000 0.000000 0.000000 0.000000 
-0.203677 23.872725 -24.305901 -4.023490 6.021040 -4.095020 -4.330450 6.987170 -0.146331 0.000000 -0.000000 0.000000 0.228492 -1.613880 0.248659 0.000000 -0.000000 0.000000 4.750560 -9.672520 0.773682 2.634760 -27.902500 6.736410 0.000000 0.000000 0.000000 15.523500 36.538502 -8.499080 -0.000000 0.000000 0.000000 -16.858000 -0.884042 -5.826750 6.528790 0.284387 -0.429765 -0.000000 0.000000 -0.000000 0.000000 0.000000 -0.000000 0.000000 -0.000000 0.000000 -11.808200 -0.890054 -2.776750 -71.401901 43.520802 17.290100 0.000000 -0.000000 0.000000 0.618643 -23.749100 -24.455000 -0.000000 0.000000 -0.000000 18.615900 0.811111 -2.406330 69.370903 52.336800 -14.229700 -0.000000 0.000000 0.000000 -10.826700 -15.967700 15.643100 -0.000000 0.000000 0.000000 0.000000 0.000000 0.000000 
-0.242733 23.748026 -23.825874 -3.862970 6.343470 -5.151090 -4.681580 8.439480 0.509412 0.000000 -0.000000 0.000000 0.477697 -2.779730 0.341468 0.000000 -0.000000 0.000000 4.259920 -10.116700 0.525592 5.711480 -29.464899 3.634880 0.000000 0.000000 0.000000 8.873160 30.742500 -4.447250 -0.000000 0.000000 0.000000 -13.950100 -1.798360 -5.425010 5.449870 0.326920 -0.385419 -0.000000 0.000000 -0.000000 0.000000 0.000000 -0.000000 0.000000 -0.000000 0.000000 -10.316500 -0.793193 -2.538130 -71.562599 43.178398 15.930700 0.000000 -0.000000 0.000000 1.061700 -24.008400 -25.548100 -0.000000 0.000000 -0.000000 18.367001 0.867420 -3.071490 70.133301 50.665100 -15.210200 -0.000000 0.000000 0.000000 -10.956200 -15.851900 15.670300 -0.000000 0.000000 0.000000 0.000000 0.000000 0.000000 
-0.347085 23.606174 -23.306650 -3.943240 6.953600 -5.586290 -4.468930 9.501750 1.206700 0.000000 -0.000000 0.000000 0.580406 -3.347320 0.304670 0.000000 -0.000000 0.000000 3.000520 -11.249100 -0.160402 8.970440 -30.033001 1.901780 0.000000 0.000000 0.000000 4.068450 22.798800 -1.859120 -0.000000 0.000000 0.000000 -8.470470 -1.439920 -3.525880 4.350030 0.186680 -0.489767 -0.000000 0.000000 -0.000000 0.000000 0.000000 -0.000000 0.000000 -0.000000 0.000000 -8.949680 -0.689225 -2.240440 -71.192497 43.272900 14.385000 0.000000 -0.000000 0.000000 1.526560 -24.019600 -26.123400 -0.000000 0.000000 -0.000000 18.191500 0.929618 -3.862350 70.872498 48.913101 -16.114201 -0.000000 0.000000 0.000000 -10.990600 -15.615500 15.540600 -0.000000 0.000000 0.000000 0.000000 0.000000 0.000000 
-0.431118 23.472099 -22.703325 -3.777650 7.649200 -5.688500 -4.450650 10.505900 1.211070 0.000000 -0.000000 0.000000 0.596605 -3.421770 0.216748 0.000000 -0.000000 0.000000 2.147370 -11.880400 -0.662562 11.730700 -29.539499 1.863630 0.000000 0.000000 0.000000 1.250600 12.664000 -0.612930 -0.000000 0.000000 0.000000 -2.279530 -2.114210 -0.845663 3.244120 -0.105472 -0.656838 -0.000000 0.000000 -0.000000 0.000000 0.000000 -0.000000 0.000000 -0.000000 0.000000 -7.608840 -0.598982 -1.951140 -70.132896 43.657501 12.358700 0.000000 -0.000000 0.000000 2.326390 -23.295099 -25.702700 -0.000000 0.000000 -0.000000 18.019100 0.987286 -4.640100 71.894402 46.987801 -17.184099 -0.000000 0.000000 0.000000 -10.924600 -15.222000 15.174700 -0.000000 0.000000 0.000000 0.000000 0.000000 0.000000 
-0.514440 23.358101 -22.008150 -4.577460 7.212680 -5.214640 -3.363190 13.183300 1.029460 0.000000 -0.000000 0.000000 0.498990 -3.028500 0.099064 0.000000 -0.000000 0.000000 1.243010 -12.186900 -1.176470 14.169700 -26.702700 4.735040 0.000000 0.000000 0.000000 -0.553275 5.053110 -0.088003 -0.000000 0.000000 0.000000 3.186360 -3.354720 1.326000 2.609290 -0.215800 -0.842351 -0.000000 0.000000 -0.000000 0.000000 0.000000 -0.000000 0.000000 -0.000000 0.000000 -6.628210 -0.519644 -1.670540 -68.178703 44.542000 9.509140 0.000000 -0.000000 0.000000 2.537990 -22.640699 -24.594601 -0.000000 0.000000 -0.000000 17.924700 1.016630 -4.958610 73.202698 44.885300 -18.654699 -0.000000 0.000000 0.000000 -10.421200 -15.114100 14.756500 -0.000000 0.000000 0.000000 0.000000 0.000000 0.000000 
-0.629470 23.248875 -21.168150 -4.989450 6.484500 -5.373980 -3.008720 15.724500 0.921684 0.000000 -0.000000 0.000000 0.447316 -2.746490 0.084589 0.000000 -0.000000 0.000000 1.197200 -11.528300 -1.164070 15.122900 -24.810499 6.909150 0.000000 0.000000 0.000000 -0.760530 3.915750 -0.000879 -0.000000 0.000000 0.000000 5.348360 -3.829030 2.303340 2.540250 -0.195572 -0.859272 -0.000000 0.000000 -0.000000 0.000000 0.000000 -0.000000 0.000000 -0.000000 0.000000 -6.183550 -0.456374 -1.400600 -66.737999 45.208099 7.776270 0.000000 -0.000000 0.000000 2.369680 -22.521799 -24.224100 -0.000000 0.000000 -0.000000 17.767799 1.001460 -4.854890 74.292702 43.360600 -20.035900 -0.000000 0.000000 0.000000 -9.219260 -15.376500 13.883100 -0.000000 0.000000 0.000000 0.000000 0.000000 0.000000 
-0.721838 23.151400 -20.236126 -5.851680 5.253940 -5.565640 -2.348820 19.362600 1.110000 0.000000 -0.000000 0.000000 0.386292 -2.432220 0.112607 0.000000 -0.000000 0.000000 0.846763 -9.675520 -1.247230 16.016399 -22.987000 8.294010 0.000000 0.000000 0.000000 -0.228893 6.236830 -0.084370 -0.000000 0.000000 0.000000 4.927250 -2.105630 1.638570 2.772380 -0.107405 -0.866847 -0.000000 0.000000 -0.000000 0.000000 0.000000 -0.000000 0.000000 -0.000000 0.000000 -6.264530 -0.443765 -1.299440 -66.335098 45.647900 7.966230 0.000000 -0.000000 0.000000 2.110370 -22.708900 -24.249599 -0.000000 0.000000 -0.000000 17.484600 0.973599 -4.630680 74.848503 42.533199 -20.766399 -0.000000 0.000000 0.000000 -7.362920 -15.196200 12.355800 -0.000000 0.000000 0.000000 0.000000 0.000000 0.000000 
-0.855618 23.175026 -19.245275 -7.150060 4.306420 -5.697780 -0.835361 22.061300 0.580343 0.000000 -0.000000 0.000000 0.182619 -1.618100 0.131908 0.000000 -0.000000 0.000000 0.466967 -6.011620 -1.194030 17.402399 -20.373400 8.650770 0.000000 0.000000 0.000000 0.129380 7.713290 -0.173575 -0.000000 0.000000 0.000000 3.090090 -0.759306 0.694121 2.975460 -0.152293 -0.843160 -0.000000 0.000000 -0.000000 0.000000 0.000000 -0.000000 0.000000 -0.000000 0.000000 -7.001750 -0.464417 -1.271150 -66.821999 45.819801 9.406440 0.000000 -0.000000 0.000000 1.488580 -22.779800 -23.636700 -0.000000 0.000000 -0.000000 17.486900 0.959014 -4.456380 74.477303 41.169201 -20.961399 -0.000000 0.000000 0.000000 -6.138730 -13.869300 10.337100 -0.000000 0.000000 0.000000 0.000000 0.000000 0.000000 
-1.010193 23.354300 -18.185024 -8.492410 3.607970 -5.551370 1.155400 24.189899 -1.121050 0.000000 -0.000000 0.000000 -0.271722 -0.261601 0.129346 0.000000 -0.000000 0.000000 0.808945 0.254301 -0.843772 18.511999 -15.806600 6.804190 0.000000 0.000000 0.000000 0.063303 6.457950 -0.074939 -0.000000 0.000000 0.000000 3.275190 -2.447520 1.177580 2.811330 -0.360138 -0.753632 -0.000000 0.000000 -0.000000 0.000000 0.000000 -0.000000 0.000000 -0.000000 0.000000 -7.775460 -0.472340 -1.151050 -68.350700 45.781300 11.558300 0.000000 -0.000000 0.000000 0.732682 -22.425800 -22.224800 -0.000000 0.000000 -0.000000 17.774500 0.943034 -4.170770 74.060097 39.469200 -21.414900 -0.000000 0.000000 0.000000 -4.836570 -12.805400 8.585620 -0.000000 0.000000 0.000000 0.000000 0.000000 0.000000 
-1.149005 23.611725 -17.048401 -9.167680 2.764690 -5.025170 2.561960 23.797199 -3.974070 0.000000 -0.000000 0.000000 -0.981464 5.109660 0.144549 0.000000 -0.000000 0.000000 1.023340 8.556330 -0.693134 18.365900 -9.921190 3.208370 0.000000 0.000000 0.000000 -0.412588 2.072220 0.160546 -0.000000 0.000000 0.000000 6.088300 -4.179500 2.820440 2.048330 -0.687851 -0.560703 -0.000000 0.000000 -0.000000 0.000000 0.000000 -0.000000 0.000000 -0.000000 0.000000 -8.352530 -0.476029 -1.050900 -70.739304 46.122101 14.741100 0.000000 -0.000000 0.000000 0.146921 -21.863400 -20.393101 -0.000000 0.000000 -0.000000 17.680401 0.912424 -3.843160 74.776001 38.469200 -22.497101 -0.000000 0.000000 0.000000 -4.479290 -13.289800 8.509330 -0.000000 0.000000 0.000000 0.000000 0.000000 0.000000 
